<svg xmlns="http://www.w3.org/2000/svg" viewBox="0 0 32 32">
  <!-- Background -->
  <rect width="32" height="32" fill="#1a1a2e"/>

  <!-- Coin/Currency symbol - pixelated style -->
  <rect x="8" y="4" width="16" height="2" fill="#ffd700"/>
  <rect x="6" y="6" width="4" height="2" fill="#ffd700"/>
  <rect x="22" y="6" width="4" height="2" fill="#ffd700"/>
  <rect x="4" y="8" width="4" height="2" fill="#ffd700"/>
  <rect x="24" y="8" width="4" height="2" fill="#ffd700"/>
  <rect x="4" y="10" width="2" height="12" fill="#ffd700"/>
  <rect x="26" y="10" width="2" height="12" fill="#ffd700"/>
  <rect x="4" y="22" width="4" height="2" fill="#ffd700"/>
  <rect x="24" y="22" width="4" height="2" fill="#ffd700"/>
  <rect x="6" y="24" width="4" height="2" fill="#ffd700"/>
  <rect x="22" y="24" width="4" height="2" fill="#ffd700"/>
  <rect x="8" y="26" width="16" height="2" fill="#ffd700"/>

  <!-- K letter in center -->
  <rect x="10" y="10" width="2" height="12" fill="#e94560"/>
  <rect x="12" y="14" width="2" height="2" fill="#e94560"/>
  <rect x="14" y="12" width="2" height="2" fill="#e94560"/>
  <rect x="16" y="10" width="2" height="2" fill="#e94560"/>
  <rect x="14" y="16" width="2" height="2" fill="#e94560"/>
  <rect x="16" y="18" width="2" height="2" fill="#e94560"/>
  <rect x="18" y="20" width="2" height="2" fill="#e94560"/>

  <!-- Shine effect -->
  <rect x="6" y="8" width="2" height="2" fill="#fff" opacity="0.3"/>
</svg>
